<svg xmlns="http://www.w3.org/2000/svg" width="512" height="512" viewBox="0 0 512 512">
  <defs>
    <linearGradient id="bg" x1="0" y1="0" x2="1" y2="1">
      <stop offset="0" stop-color="#176236"/>
      <stop offset="0.65" stop-color="#0b3d22"/>
      <stop offset="1" stop-color="#19a84e"/>
    </linearGradient>
    <radialGradient id="ball" cx="0.38" cy="0.32" r="0.8">
      <stop offset="0" stop-color="#ffffff"/>
      <stop offset="1" stop-color="#dbe4dd"/>
    </radialGradient>
    <clipPath id="ballclip"><circle cx="256" cy="258" r="150"/></clipPath>
  </defs>
  <rect width="512" height="512" rx="112" fill="url(#bg)"/>
  <path d="M0 372 Q256 316 512 372 L512 512 L0 512 Z" fill="#ffffff" opacity="0.06"/>
  <circle cx="256" cy="258" r="150" fill="url(#ball)"/>
  <g clip-path="url(#ballclip)">
    <line x1="256.0" y1="203.0" x2="256.0" y2="142.0" stroke="#111c15" stroke-width="7"/><line x1="308.3" y1="241.0" x2="366.3" y2="222.2" stroke="#111c15" stroke-width="7"/><line x1="288.3" y1="302.5" x2="324.2" y2="351.8" stroke="#111c15" stroke-width="7"/><line x1="223.7" y1="302.5" x2="187.8" y2="351.8" stroke="#111c15" stroke-width="7"/><line x1="203.7" y1="241.0" x2="145.7" y2="222.2" stroke="#111c15" stroke-width="7"/>
    <path d="M256.0,203.0 L308.3,241.0 L288.3,302.5 L223.7,302.5 L203.7,241.0 Z" fill="#111c15"/>
    <path d="M256.0,176.0 L223.7,152.5 L236.0,114.5 L276.0,114.5 L288.3,152.5 Z" fill="#111c15"/><path d="M334.0,232.7 L346.3,194.6 L386.3,194.6 L398.7,232.7 L366.3,256.2 Z" fill="#111c15"/><path d="M304.2,324.3 L344.2,324.3 L356.5,362.4 L324.2,385.8 L291.8,362.4 Z" fill="#111c15"/><path d="M207.8,324.3 L220.2,362.4 L187.8,385.8 L155.5,362.4 L167.8,324.3 Z" fill="#111c15"/><path d="M178.0,232.7 L145.7,256.2 L113.3,232.7 L125.7,194.6 L165.7,194.6 Z" fill="#111c15"/>
  </g>
  <circle cx="256" cy="258" r="150" fill="none" stroke="#0b3d22" stroke-opacity="0.25" stroke-width="6"/>
</svg>
